<svg xmlns="http://www.w3.org/2000/svg" viewBox="0 0 53 58" width="100" height="100"><path d="M44 42.5L35.0351 37.1669C31.0351 42.6669 25 42 22 39.5C18.5003 36.7534 15.7595 25.3619 22 19C24.9828 15.9591 31.3219 14.982 35.0351 20.5L43.5 15C41.6667 11.8333 35.5351 6.00174 27.5351 6.00174C20.3685 5.88981 6.20348 10.5673 7.03507 30.166C7.83807 49.0909 21.0115 52.5116 27.5351 52.5C35.5351 52.4858 42.1667 45.6666 44 42.5Z" fill="#EA3F40"></path><path d="M44 15.5L35.0351 20.8331C31.0351 15.3331 25 16 22 18.5C18.5003 21.2466 15.7595 32.6381 22 39C24.9828 42.0409 31.3219 43.018 35.0351 37.5L43.5 43C41.6667 46.1667 35.5351 51.9983 27.5351 51.9983C20.3685 52.1102 6.20348 47.4327 7.03507 27.834C7.83807 8.90914 21.0115 5.48845 27.5351 5.5C35.5351 5.51417 42.1667 12.3334 44 15.5Z" fill="#EA3F40"></path></svg>
